<svg xmlns="http://www.w3.org/2000/svg" viewBox="0 0 1280 720" width="1280" height="720">
  <defs>
    <linearGradient id="g3" x1="0%" y1="0%" x2="100%" y2="100%">
      <stop offset="0%" stop-color="#7b1fa2"/>
      <stop offset="100%" stop-color="#1a0b2e"/>
    </linearGradient>
    <linearGradient id="gridg3" x1="0" y1="0" x2="0" y2="1">
      <stop offset="0%" stop-color="#ffffff" stop-opacity="0"/>
      <stop offset="100%" stop-color="#ffffff" stop-opacity="0.25"/>
    </linearGradient>
  </defs>
  <rect width="1280" height="720" fill="url(#g3)"/>
  <rect width="1280" height="720" fill="url(#gridg3)"/>
  
        <g opacity="0.35" transform="translate(640.0,446.4)">
          <path d="M0,0 C-40,-10 -70,-45 -60,-70 C-40,-60 -20,-40 0,-20 Z" fill="#fff"/>
          <path d="M0,0 C40,-10 70,-45 60,-70 C40,-60 20,-40 0,-20 Z" fill="#fff"/>
          <path d="M0,0 C-20,-40 -15,-75 5,-95 C15,-70 10,-40 0,-20 Z" fill="#fff"/>
          <path d="M0,0 C20,-40 15,-75 -5,-95 C-15,-70 -10,-40 0,-20 Z" fill="#fff"/>
          <rect x="-4" y="-20" width="8" height="60" fill="#fff"/>
        </g>
  <text x="50%" y="619.2" font-family="Poppins, Arial, sans-serif" font-size="40" font-weight="700" fill="#ffffff" text-anchor="middle" opacity="0.95">Showcase Video</text>
  <text x="50%" y="669.6" font-family="Poppins, Arial, sans-serif" font-size="25" fill="#ffffff" text-anchor="middle" opacity="0.65">Placeholder — add highlight reel</text>
</svg>